<svg width="854" height="491" viewBox="0 0 854 491" fill="none" xmlns="http://www.w3.org/2000/svg">
<path d="M121.274 328.441H246.875C259.657 328.441 270.018 318.078 270.018 305.294C270.018 292.51 259.656 282.147 246.874 282.147H176.728C161.548 282.147 149.243 269.841 149.243 254.659C149.243 239.477 161.548 227.171 176.728 227.171H239.112C256.181 227.171 270.018 213.332 270.018 196.26C270.018 179.189 256.181 165.35 239.112 165.35H169.694C154.476 165.35 142.139 153.011 142.139 137.791C142.139 122.572 154.475 110.233 169.694 110.233H270.018H293.96C309.178 110.233 321.515 97.8945 321.515 82.6749C321.515 67.4552 309.178 55.1166 293.96 55.1166H266.797C251.579 55.1166 239.242 42.7779 239.242 27.5583C239.242 12.3387 251.578 0 266.797 0H282.238H284.824H448.821H454.398H625.689H664.955C680.173 0 692.51 12.3387 692.51 27.5583C692.51 42.7779 680.173 55.1166 664.955 55.1166H653.243C638.026 55.1166 625.689 67.4552 625.689 82.6749C625.689 97.8945 638.026 110.233 653.243 110.233H758.388C770.056 110.233 779.513 119.693 779.513 131.361C779.513 143.029 770.055 152.488 758.388 152.488H647.732C635.558 152.488 625.689 162.359 625.689 174.535C625.689 186.711 635.558 196.582 647.732 196.582H824.445C839.663 196.582 852 208.92 852 224.14C852 239.36 839.663 251.698 824.445 251.698H653.242C638.025 251.698 625.688 264.036 625.688 279.256C625.688 294.476 638.025 306.815 653.242 306.815H756.557C780.905 306.815 800.644 326.556 800.644 350.907C800.644 375.259 780.905 395 756.557 395H625.689H567.638H534.977H270.019H121.275C102.897 395 88 380.1 88 361.721C87.998 343.34 102.896 328.441 121.274 328.441Z" fill="#052042"/>
<path d="M841.269 490.7H12.0748C5.391 490.7 0.0439453 485.353 0.0439453 478.669C0.0439453 471.985 5.391 466.638 12.0748 466.638H841.269C847.953 466.638 853.3 471.985 853.3 478.669C853.3 485.353 847.953 490.7 841.269 490.7Z" fill="#C9C9C9"/>
<path d="M201.622 358.381C188.789 358.381 178.496 347.954 178.496 335.255C178.496 322.556 188.923 312.129 201.622 312.129H332.625V358.515H201.622V358.381Z" fill="#CECECE"/>
<path d="M340.245 366.402H201.622C184.378 366.402 170.476 352.366 170.476 335.255C170.476 318.011 184.512 304.108 201.622 304.108H340.245V366.402Z" fill="white"/>
<path d="M193.067 328.036H332.625" stroke="#1F3969" stroke-width="4" stroke-miterlimit="10" stroke-linecap="round" stroke-linejoin="round"/>
<path d="M193.067 342.206H332.625" stroke="#1F3969" stroke-width="4" stroke-miterlimit="10" stroke-linecap="round" stroke-linejoin="round"/>
<path d="M201.622 358.381C188.789 358.381 178.496 347.954 178.496 335.255C178.496 322.556 188.923 312.129 201.622 312.129H332.625V358.515H201.622V358.381Z" stroke="#1F3969" stroke-width="4" stroke-miterlimit="10" stroke-linecap="round" stroke-linejoin="round"/>
<path d="M201.622 358.381C188.789 358.381 178.496 347.954 178.496 335.255C178.496 322.556 188.923 312.129 201.622 312.129H334.898L340.245 304.108H201.622C184.378 304.108 170.476 318.144 170.476 335.255C170.476 352.499 184.512 366.402 201.622 366.402H340.245L334.898 358.381H201.622Z" fill="#FF3E3E"/>
<path d="M201.622 358.381C188.789 358.381 178.496 347.954 178.496 335.255C178.496 322.556 188.923 312.129 201.622 312.129H334.898L340.245 304.108H201.622C184.378 304.108 170.476 318.144 170.476 335.255C170.476 352.499 184.512 366.402 201.622 366.402H340.245L334.898 358.381H201.622Z" stroke="#1F3969" stroke-width="4" stroke-miterlimit="10" stroke-linecap="round" stroke-linejoin="round"/>
<path opacity="0.28" d="M310.435 303.975H285.838V366.401H310.435V303.975Z" fill="#1F3969" stroke="#1F3969" stroke-width="4" stroke-miterlimit="10" stroke-linecap="round" stroke-linejoin="round"/>
<path d="M325.941 417.867H72.09C67.144 417.867 63 413.857 63 408.777V375.358C63 370.412 67.0103 366.268 72.09 366.268H325.941C330.887 366.268 335.031 370.278 335.031 375.358V408.777C335.031 413.857 331.021 417.867 325.941 417.867Z" fill="#50B56F"/>
<path d="M325.941 417.867H72.09C67.144 417.867 63 413.857 63 408.777V375.358C63 370.412 67.0103 366.268 72.09 366.268H325.941C330.887 366.268 335.031 370.278 335.031 375.358V408.777C335.031 413.857 331.021 417.867 325.941 417.867Z" stroke="#1F3969" stroke-width="4" stroke-miterlimit="10" stroke-linecap="round" stroke-linejoin="round"/>
<path opacity="0.28" d="M325.941 366.401H285.838V386.453C285.838 399.019 295.998 409.312 308.697 409.312H335.031C335.031 409.178 335.031 409.044 335.031 408.911V375.491C335.031 370.412 331.021 366.401 325.941 366.401Z" fill="#1F3969" stroke="#1F3969" stroke-width="4" stroke-miterlimit="10" stroke-linecap="round" stroke-linejoin="round"/>
<path d="M397.458 428.294H103.37C105.108 432.571 106.044 437.918 106.044 443.533C106.044 449.147 105.108 454.361 103.37 458.772H397.325C395.587 454.494 394.651 449.147 394.651 443.533C394.785 437.785 395.72 432.571 397.458 428.294Z" fill="#CECECE"/>
<path d="M405.479 420.139H95.4834V428.16H405.479V420.139Z" fill="#5F5AFF"/>
<path d="M405.479 420.139H95.4834V428.16H405.479V420.139Z" stroke="#1F3969" stroke-width="4" stroke-miterlimit="10" stroke-linecap="round" stroke-linejoin="round"/>
<path d="M405.479 458.638H95.4834V466.659H405.479V458.638Z" fill="#F6F9FD"/>
<path d="M405.479 458.638H95.4834V466.659H405.479V458.638Z" fill="#5F5AFF"/>
<path d="M405.479 458.638H95.4834V466.659H405.479V458.638Z" stroke="#1F3969" stroke-width="4" stroke-miterlimit="10" stroke-linecap="round" stroke-linejoin="round"/>
<path d="M559.474 438.186L555.464 393.137H489.428L485.417 438.186C484.482 448.613 478.199 458.638 468.307 466.659V466.793H576.585V466.659C566.692 458.638 560.41 448.613 559.474 438.186Z" fill="#BFCFE2"/>
<path opacity="0.28" d="M489.428 393.137L487.021 420.139H557.87L555.464 393.137H489.428Z" fill="#1F3969" stroke="#1F3969" stroke-width="4" stroke-miterlimit="10" stroke-linecap="round" stroke-linejoin="round"/>
<path d="M559.474 438.186L555.464 393.137H489.428L485.417 438.186C484.482 448.613 478.199 458.638 468.307 466.659V466.793H576.585V466.659C566.692 458.638 560.41 448.613 559.474 438.186Z" stroke="#1F3969" stroke-width="4" stroke-miterlimit="10" stroke-linecap="round" stroke-linejoin="round"/>
<path d="M733.654 399.821H311.237C302.414 399.821 295.196 392.602 295.196 383.779V108.406C295.196 99.5836 302.414 92.3651 311.237 92.3651H733.654C742.477 92.3651 749.695 99.5836 749.695 108.406V383.779C749.695 392.736 742.477 399.821 733.654 399.821Z" fill="white"/>
<path d="M733.654 399.821H311.237C302.414 399.821 295.196 392.602 295.196 383.779V108.406C295.196 99.5836 302.414 92.3651 311.237 92.3651H733.654C742.477 92.3651 749.695 99.5836 749.695 108.406V383.779C749.695 392.736 742.477 399.821 733.654 399.821Z" fill="#BFCFE2"/>
<path d="M733.654 399.821H311.237C302.414 399.821 295.196 392.602 295.196 383.779V108.406C295.196 99.5836 302.414 92.3651 311.237 92.3651H733.654C742.477 92.3651 749.695 99.5836 749.695 108.406V383.779C749.695 392.736 742.477 399.821 733.654 399.821Z" stroke="#1F3969" stroke-width="4" stroke-miterlimit="10" stroke-linecap="round" stroke-linejoin="round"/>
<path d="M727.045 348.526V115.128L317.995 115.128L317.995 348.526L727.045 348.526Z" fill="#F6F9FD"/>
<path opacity="0.28" d="M332.625 92.3651V277.641C332.625 283.522 337.438 288.335 343.319 288.335H596.101C601.983 288.335 606.795 283.522 606.795 277.641V92.3651H332.625Z" fill="#1F3969" stroke="#1F3969" stroke-width="4" stroke-miterlimit="10" stroke-linecap="round" stroke-linejoin="round"/>
<path d="M727.045 348.526V115.128L317.995 115.128L317.995 348.526L727.045 348.526Z" stroke="#1F3969" stroke-width="4" stroke-miterlimit="10" stroke-linecap="round" stroke-linejoin="round"/>
<path d="M504.533 374.021H540.492" stroke="#1F3969" stroke-width="4" stroke-miterlimit="10" stroke-linecap="round" stroke-linejoin="round"/>
<path d="M608.132 273.63H355.35C349.468 273.63 344.656 268.818 344.656 262.936V64.8279C344.656 58.9461 349.468 54.1338 355.35 54.1338H608.132C614.014 54.1338 618.826 58.9461 618.826 64.8279V263.07C618.826 268.952 614.014 273.63 608.132 273.63Z" fill="#2D425E"/>
<path d="M618.826 80.0669H344.656V64.6941C344.656 58.8123 349.468 54 355.35 54H608.132C614.014 54 618.826 58.8123 618.826 64.6941V80.0669Z" stroke="#1F3969" stroke-width="4" stroke-miterlimit="10" stroke-linecap="round" stroke-linejoin="round"/>
<path d="M618.826 85.1466H344.656V64.6941C344.656 58.8123 349.468 54 355.35 54H608.132C614.014 54 618.826 58.8123 618.826 64.6941V85.1466Z" fill="#D0DDF0"/>
<path d="M618.826 85.1466H344.656V64.6941C344.656 58.8123 349.468 54 355.35 54H608.132C614.014 54 618.826 58.8123 618.826 64.6941V85.1466Z" stroke="#1F3969" stroke-width="4" stroke-miterlimit="10" stroke-linecap="round" stroke-linejoin="round"/>
<path d="M618.826 85.1466H344.656V64.6941C344.656 58.8123 349.468 54 355.35 54H608.132C614.014 54 618.826 58.8123 618.826 64.6941V85.1466Z" stroke="#1F3969" stroke-width="4" stroke-miterlimit="10" stroke-linecap="round" stroke-linejoin="round"/>
<path d="M608.132 273.63H355.35C349.468 273.63 344.656 268.818 344.656 262.936V64.8279C344.656 58.9461 349.468 54.1338 355.35 54.1338H608.132C614.014 54.1338 618.826 58.9461 618.826 64.8279V263.07C618.826 268.952 614.014 273.63 608.132 273.63Z" stroke="#1F3969" stroke-width="4" stroke-miterlimit="10" stroke-linecap="round" stroke-linejoin="round"/>
<path opacity="0.28" d="M740.071 320.952H585.006C579.124 320.952 574.312 316.139 574.312 310.258V145.969C574.312 140.088 579.124 135.275 585.006 135.275H740.071C745.952 135.275 750.765 140.088 750.765 145.969V310.258C750.765 316.273 745.952 320.952 740.071 320.952Z" fill="#1F3969" stroke="#1F3969" stroke-width="4" stroke-miterlimit="10" stroke-linecap="round" stroke-linejoin="round"/>
<path d="M750.765 311.594H595.7C589.818 311.594 585.006 306.782 585.006 300.9V136.612C585.006 130.73 589.818 125.918 595.7 125.918H750.765C756.646 125.918 761.459 130.73 761.459 136.612V300.9C761.459 306.916 756.646 311.594 750.765 311.594Z" fill="#2AA1FF"/>
<path d="M750.765 311.594H595.7C589.818 311.594 585.006 306.782 585.006 300.9V136.612C585.006 130.73 589.818 125.918 595.7 125.918H750.765C756.646 125.918 761.459 130.73 761.459 136.612V300.9C761.459 306.916 756.646 311.594 750.765 311.594Z" stroke="#1F3969" stroke-width="4" stroke-miterlimit="10" stroke-linecap="round" stroke-linejoin="round"/>
<path opacity="0.34" d="M727.639 176.848H618.559C614.682 176.848 611.608 173.774 611.608 169.897V159.471C611.608 155.594 614.682 152.519 618.559 152.519H727.639C731.515 152.519 734.59 155.594 734.59 159.471V169.897C734.59 173.774 731.515 176.848 727.639 176.848Z" stroke="white" stroke-width="2" stroke-miterlimit="10" stroke-linecap="round" stroke-linejoin="round"/>
<g opacity="0.34">
<path opacity="0.34" d="M679.783 216.016H618.826C614.95 216.016 611.875 212.941 611.875 209.064V198.638C611.875 194.761 614.95 191.687 618.826 191.687H679.783C683.659 191.687 686.734 194.761 686.734 198.638V209.064C686.6 212.941 683.526 216.016 679.783 216.016Z" stroke="white" stroke-width="2" stroke-miterlimit="10" stroke-linecap="round" stroke-linejoin="round"/>
<path opacity="0.34" d="M727.772 216.016H704.112C700.235 216.016 697.16 212.941 697.16 209.064V198.638C697.16 194.761 700.235 191.687 704.112 191.687H727.772C731.649 191.687 734.724 194.761 734.724 198.638V209.064C734.724 212.941 731.649 216.016 727.772 216.016Z" stroke="white" stroke-width="2" stroke-miterlimit="10" stroke-linecap="round" stroke-linejoin="round"/>
</g>
<path d="M611.741 256.653H734.59" stroke="white" stroke-width="2" stroke-miterlimit="10" stroke-linecap="round" stroke-linejoin="round"/>
<path d="M611.741 271.09H734.59" stroke="white" stroke-width="2" stroke-miterlimit="10" stroke-linecap="round" stroke-linejoin="round"/>
<path d="M611.741 285.528H686.6" stroke="white" stroke-width="2" stroke-miterlimit="10" stroke-linecap="round" stroke-linejoin="round"/>
<path d="M371.525 74.9871C374.478 74.9871 376.872 72.5932 376.872 69.6401C376.872 66.687 374.478 64.293 371.525 64.293C368.572 64.293 366.178 66.687 366.178 69.6401C366.178 72.5932 368.572 74.9871 371.525 74.9871Z" fill="#1F3969"/>
<path d="M390.106 74.9871C393.059 74.9871 395.453 72.5932 395.453 69.6401C395.453 66.687 393.059 64.293 390.106 64.293C387.153 64.293 384.759 66.687 384.759 69.6401C384.759 72.5932 387.153 74.9871 390.106 74.9871Z" fill="#1F3969"/>
<path d="M408.687 74.9871C411.64 74.9871 414.034 72.5932 414.034 69.6401C414.034 66.687 411.64 64.293 408.687 64.293C405.734 64.293 403.34 66.687 403.34 69.6401C403.34 72.5932 405.734 74.9871 408.687 74.9871Z" fill="#1F3969"/>
<path d="M502.127 109.877H519.505" stroke="white" stroke-width="4" stroke-miterlimit="10" stroke-linecap="round" stroke-linejoin="round"/>
<path d="M414.034 109.877H489.294" stroke="#7BFFA0" stroke-width="4" stroke-miterlimit="10" stroke-linecap="round" stroke-linejoin="round"/>
<path d="M376.872 109.877H403.34" stroke="#9169FF" stroke-width="4" stroke-miterlimit="10" stroke-linecap="round" stroke-linejoin="round"/>
<path d="M411.36 241.548H468.841" stroke="#9169FF" stroke-width="4" stroke-miterlimit="10" stroke-linecap="round" stroke-linejoin="round"/>
<path d="M376.872 241.548H395.453" stroke="#7BFFA0" stroke-width="4" stroke-miterlimit="10" stroke-linecap="round" stroke-linejoin="round"/>
<path d="M489.294 126.319H500.122" stroke="white" stroke-width="4" stroke-miterlimit="10" stroke-linecap="round" stroke-linejoin="round"/>
<path d="M440.101 126.319H476.461" stroke="#9169FF" stroke-width="4" stroke-miterlimit="10" stroke-linecap="round" stroke-linejoin="round"/>
<path d="M390.106 126.319H427.134" stroke="#FFC47D" stroke-width="4" stroke-miterlimit="10" stroke-linecap="round" stroke-linejoin="round"/>
<path d="M447.453 142.761H479.402" stroke="white" stroke-width="4" stroke-miterlimit="10" stroke-linecap="round" stroke-linejoin="round"/>
<path d="M407.35 142.761H437.427" stroke="#FF5757" stroke-width="4" stroke-miterlimit="10" stroke-linecap="round" stroke-linejoin="round"/>
<path d="M451.731 159.203H458.281" stroke="white" stroke-width="4" stroke-miterlimit="10" stroke-linecap="round" stroke-linejoin="round"/>
<path d="M425.263 159.203H440.101" stroke="#9169FF" stroke-width="4" stroke-miterlimit="10" stroke-linecap="round" stroke-linejoin="round"/>
<path d="M390.106 159.203H414.034" stroke="#7BFFA0" stroke-width="4" stroke-miterlimit="10" stroke-linecap="round" stroke-linejoin="round"/>
<path d="M441.438 175.779H484.08" stroke="#FFC47D" stroke-width="4" stroke-miterlimit="10" stroke-linecap="round" stroke-linejoin="round"/>
<path d="M390.106 175.779H428.337" stroke="#FF5757" stroke-width="4" stroke-miterlimit="10" stroke-linecap="round" stroke-linejoin="round"/>
<path d="M490.764 192.221H513.89" stroke="#9169FF" stroke-width="4" stroke-miterlimit="10" stroke-linecap="round" stroke-linejoin="round"/>
<path d="M441.438 192.221H478.466" stroke="#FF5757" stroke-width="4" stroke-miterlimit="10" stroke-linecap="round" stroke-linejoin="round"/>
<path d="M407.35 192.221H428.337" stroke="#7BFFA0" stroke-width="4" stroke-miterlimit="10" stroke-linecap="round" stroke-linejoin="round"/>
<path d="M458.281 208.663H478.466" stroke="white" stroke-width="4" stroke-miterlimit="10" stroke-linecap="round" stroke-linejoin="round"/>
<path d="M407.35 208.663H444.379" stroke="#9169FF" stroke-width="4" stroke-miterlimit="10" stroke-linecap="round" stroke-linejoin="round"/>
<path d="M510.816 225.106H533.942" stroke="white" stroke-width="4" stroke-miterlimit="10" stroke-linecap="round" stroke-linejoin="round"/>
<path d="M440.101 225.106H498.25" stroke="#FFC47D" stroke-width="4" stroke-miterlimit="10" stroke-linecap="round" stroke-linejoin="round"/>
<path d="M390.106 225.106H427.134" stroke="white" stroke-width="4" stroke-miterlimit="10" stroke-linecap="round" stroke-linejoin="round"/>
<path d="M106.712 437.517H394.785" stroke="#1F3969" stroke-width="4" stroke-miterlimit="10" stroke-linecap="round" stroke-linejoin="round"/>
<path d="M106.712 448.211H394.785" stroke="#1F3969" stroke-width="4" stroke-miterlimit="10" stroke-linecap="round" stroke-linejoin="round"/>
<path d="M397.458 428.294H103.37C105.108 432.571 106.044 437.918 106.044 443.533C106.044 449.147 105.108 454.361 103.37 458.772H397.325C395.587 454.494 394.651 449.147 394.651 443.533C394.785 437.785 395.72 432.571 397.458 428.294Z" stroke="#1F3969" stroke-width="4" stroke-miterlimit="10" stroke-linecap="round" stroke-linejoin="round"/>
<path d="M759.525 327.309L746.514 328.836L757.83 425.225L770.841 423.698L759.525 327.309Z" fill="#FFA364"/>
<path d="M759.543 327.411L746.532 328.939L747.685 338.764L760.696 337.236L759.543 327.411Z" fill="#2AA1FF"/>
<path d="M759.543 327.411L746.532 328.939L747.685 338.764L760.696 337.236L759.543 327.411Z" stroke="#1F3969" stroke-width="4" stroke-miterlimit="10" stroke-linecap="round" stroke-linejoin="round"/>
<path d="M759.525 327.309L746.514 328.836L757.83 425.225L770.841 423.698L759.525 327.309Z" stroke="#1F3969" stroke-width="4" stroke-miterlimit="10" stroke-linecap="round" stroke-linejoin="round"/>
<path d="M795.203 347.053L782.18 345.636L771.689 442.113L784.712 443.529L795.203 347.053Z" fill="#FF5252"/>
<path d="M795.203 347.053L782.18 345.636L771.689 442.113L784.712 443.529L795.203 347.053Z" stroke="#1F3969" stroke-width="4" stroke-miterlimit="10" stroke-linecap="round" stroke-linejoin="round"/>
<path d="M795.299 347.076L782.276 345.659L781.207 355.493L794.23 356.909L795.299 347.076Z" fill="#2D425E"/>
<path d="M795.299 347.076L782.276 345.659L781.207 355.493L794.23 356.909L795.299 347.076Z" stroke="#1F3969" stroke-width="4" stroke-miterlimit="10" stroke-linecap="round" stroke-linejoin="round"/>
<path d="M803.305 475.06H750.77L742.215 394.587H811.86L803.305 475.06Z" fill="#6567C3"/>
<path d="M742.215 394.587L742.349 396.057H795.418L786.997 475.06H803.305L811.86 394.587H742.215Z" fill="#6567C3"/>
<path d="M803.305 475.06H750.77L742.215 394.587H811.86L803.305 475.06Z" stroke="#1F3969" stroke-width="4" stroke-miterlimit="10" stroke-linecap="round" stroke-linejoin="round"/>
<path d="M108.524 405.144C107.264 405.144 106.124 404.868 105.104 404.316C104.096 403.752 103.304 402.984 102.728 402.012C102.152 401.028 101.864 399.924 101.864 398.7C101.864 397.476 102.152 396.378 102.728 395.406C103.304 394.422 104.102 393.654 105.122 393.102C106.142 392.538 107.282 392.256 108.542 392.256C109.526 392.256 110.426 392.424 111.242 392.76C112.058 393.084 112.754 393.57 113.33 394.218L112.16 395.352C111.212 394.356 110.03 393.858 108.614 393.858C107.678 393.858 106.832 394.068 106.076 394.488C105.32 394.908 104.726 395.49 104.294 396.234C103.874 396.966 103.664 397.788 103.664 398.7C103.664 399.612 103.874 400.44 104.294 401.184C104.726 401.916 105.32 402.492 106.076 402.912C106.832 403.332 107.678 403.542 108.614 403.542C110.018 403.542 111.2 403.038 112.16 402.03L113.33 403.164C112.754 403.812 112.052 404.304 111.224 404.64C110.408 404.976 109.508 405.144 108.524 405.144ZM119.328 405.108C118.38 405.108 117.528 404.898 116.772 404.478C116.016 404.058 115.422 403.482 114.99 402.75C114.57 402.006 114.36 401.166 114.36 400.23C114.36 399.294 114.57 398.46 114.99 397.728C115.422 396.984 116.016 396.408 116.772 396C117.528 395.58 118.38 395.37 119.328 395.37C120.276 395.37 121.122 395.58 121.866 396C122.622 396.408 123.21 396.984 123.63 397.728C124.062 398.46 124.278 399.294 124.278 400.23C124.278 401.166 124.062 402.006 123.63 402.75C123.21 403.482 122.622 404.058 121.866 404.478C121.122 404.898 120.276 405.108 119.328 405.108ZM119.328 403.596C119.94 403.596 120.486 403.458 120.966 403.182C121.458 402.894 121.842 402.498 122.118 401.994C122.394 401.478 122.532 400.89 122.532 400.23C122.532 399.57 122.394 398.988 122.118 398.484C121.842 397.968 121.458 397.572 120.966 397.296C120.486 397.02 119.94 396.882 119.328 396.882C118.716 396.882 118.164 397.02 117.672 397.296C117.192 397.572 116.808 397.968 116.52 398.484C116.244 398.988 116.106 399.57 116.106 400.23C116.106 400.89 116.244 401.478 116.52 401.994C116.808 402.498 117.192 402.894 117.672 403.182C118.164 403.458 118.716 403.596 119.328 403.596ZM135.667 391.644V405H134.011V403.488C133.627 404.016 133.141 404.418 132.553 404.694C131.965 404.97 131.317 405.108 130.609 405.108C129.685 405.108 128.857 404.904 128.125 404.496C127.393 404.088 126.817 403.518 126.397 402.786C125.989 402.042 125.785 401.19 125.785 400.23C125.785 399.27 125.989 398.424 126.397 397.692C126.817 396.96 127.393 396.39 128.125 395.982C128.857 395.574 129.685 395.37 130.609 395.37C131.293 395.37 131.923 395.502 132.499 395.766C133.075 396.018 133.555 396.396 133.939 396.9V391.644H135.667ZM130.753 403.596C131.353 403.596 131.899 403.458 132.391 403.182C132.883 402.894 133.267 402.498 133.543 401.994C133.819 401.478 133.957 400.89 133.957 400.23C133.957 399.57 133.819 398.988 133.543 398.484C133.267 397.968 132.883 397.572 132.391 397.296C131.899 397.02 131.353 396.882 130.753 396.882C130.141 396.882 129.589 397.02 129.097 397.296C128.617 397.572 128.233 397.968 127.945 398.484C127.669 398.988 127.531 399.57 127.531 400.23C127.531 400.89 127.669 401.478 127.945 401.994C128.233 402.498 128.617 402.894 129.097 403.182C129.589 403.458 130.141 403.596 130.753 403.596ZM147.559 400.284C147.559 400.416 147.547 400.59 147.523 400.806H139.783C139.891 401.646 140.257 402.324 140.881 402.84C141.517 403.344 142.303 403.596 143.239 403.596C144.379 403.596 145.297 403.212 145.993 402.444L146.947 403.56C146.515 404.064 145.975 404.448 145.327 404.712C144.691 404.976 143.977 405.108 143.185 405.108C142.177 405.108 141.283 404.904 140.503 404.496C139.723 404.076 139.117 403.494 138.685 402.75C138.265 402.006 138.055 401.166 138.055 400.23C138.055 399.306 138.259 398.472 138.667 397.728C139.087 396.984 139.657 396.408 140.377 396C141.109 395.58 141.931 395.37 142.843 395.37C143.755 395.37 144.565 395.58 145.273 396C145.993 396.408 146.551 396.984 146.947 397.728C147.355 398.472 147.559 399.324 147.559 400.284ZM142.843 396.828C142.015 396.828 141.319 397.08 140.755 397.584C140.203 398.088 139.879 398.748 139.783 399.564H145.903C145.807 398.76 145.477 398.106 144.913 397.602C144.361 397.086 143.671 396.828 142.843 396.828ZM158.688 398.466C159.42 398.67 159.996 399.042 160.416 399.582C160.836 400.11 161.046 400.782 161.046 401.598C161.046 402.69 160.632 403.53 159.804 404.118C158.988 404.706 157.794 405 156.222 405H150.21V392.4H155.862C157.302 392.4 158.412 392.688 159.192 393.264C159.984 393.84 160.38 394.638 160.38 395.658C160.38 396.318 160.224 396.888 159.912 397.368C159.612 397.848 159.204 398.214 158.688 398.466ZM152.01 393.858V397.89H155.7C156.624 397.89 157.332 397.722 157.824 397.386C158.328 397.038 158.58 396.534 158.58 395.874C158.58 395.214 158.328 394.716 157.824 394.38C157.332 394.032 156.624 393.858 155.7 393.858H152.01ZM156.15 403.542C157.17 403.542 157.938 403.374 158.454 403.038C158.97 402.702 159.228 402.174 159.228 401.454C159.228 400.05 158.202 399.348 156.15 399.348H152.01V403.542H156.15ZM165.237 397.062C165.537 396.51 165.981 396.09 166.569 395.802C167.157 395.514 167.871 395.37 168.711 395.37V397.044C168.615 397.032 168.483 397.026 168.315 397.026C167.379 397.026 166.641 397.308 166.101 397.872C165.573 398.424 165.309 399.216 165.309 400.248V405H163.581V395.46H165.237V397.062ZM179.375 400.284C179.375 400.416 179.363 400.59 179.339 400.806H171.599C171.707 401.646 172.073 402.324 172.697 402.84C173.333 403.344 174.119 403.596 175.055 403.596C176.195 403.596 177.113 403.212 177.809 402.444L178.763 403.56C178.331 404.064 177.791 404.448 177.143 404.712C176.507 404.976 175.793 405.108 175.001 405.108C173.993 405.108 173.099 404.904 172.319 404.496C171.539 404.076 170.933 403.494 170.501 402.75C170.081 402.006 169.871 401.166 169.871 400.23C169.871 399.306 170.075 398.472 170.483 397.728C170.903 396.984 171.473 396.408 172.193 396C172.925 395.58 173.747 395.37 174.659 395.37C175.571 395.37 176.381 395.58 177.089 396C177.809 396.408 178.367 396.984 178.763 397.728C179.171 398.472 179.375 399.324 179.375 400.284ZM174.659 396.828C173.831 396.828 173.135 397.08 172.571 397.584C172.019 398.088 171.695 398.748 171.599 399.564H177.719C177.623 398.76 177.293 398.106 176.729 397.602C176.177 397.086 175.487 396.828 174.659 396.828ZM184.985 395.37C186.305 395.37 187.313 395.694 188.009 396.342C188.717 396.99 189.071 397.956 189.071 399.24V405H187.433V403.74C187.145 404.184 186.731 404.526 186.191 404.766C185.663 404.994 185.033 405.108 184.301 405.108C183.233 405.108 182.375 404.85 181.727 404.334C181.091 403.818 180.773 403.14 180.773 402.3C180.773 401.46 181.079 400.788 181.691 400.284C182.303 399.768 183.275 399.51 184.607 399.51H187.343V399.168C187.343 398.424 187.127 397.854 186.695 397.458C186.263 397.062 185.627 396.864 184.787 396.864C184.223 396.864 183.671 396.96 183.131 397.152C182.591 397.332 182.135 397.578 181.763 397.89L181.043 396.594C181.535 396.198 182.123 395.898 182.807 395.694C183.491 395.478 184.217 395.37 184.985 395.37ZM184.589 403.776C185.249 403.776 185.819 403.632 186.299 403.344C186.779 403.044 187.127 402.624 187.343 402.084V400.752H184.679C183.215 400.752 182.483 401.244 182.483 402.228C182.483 402.708 182.669 403.086 183.041 403.362C183.413 403.638 183.929 403.776 184.589 403.776ZM195.977 400.554L193.997 402.39V405H192.269V391.644H193.997V400.212L199.199 395.46H201.287L197.273 399.402L201.683 405H199.559L195.977 400.554ZM211.578 400.284C211.578 400.416 211.566 400.59 211.542 400.806H203.802C203.91 401.646 204.276 402.324 204.9 402.84C205.536 403.344 206.322 403.596 207.258 403.596C208.398 403.596 209.316 403.212 210.012 402.444L210.966 403.56C210.534 404.064 209.994 404.448 209.346 404.712C208.71 404.976 207.996 405.108 207.204 405.108C206.196 405.108 205.302 404.904 204.522 404.496C203.742 404.076 203.136 403.494 202.704 402.75C202.284 402.006 202.074 401.166 202.074 400.23C202.074 399.306 202.278 398.472 202.686 397.728C203.106 396.984 203.676 396.408 204.396 396C205.128 395.58 205.95 395.37 206.862 395.37C207.774 395.37 208.584 395.58 209.292 396C210.012 396.408 210.57 396.984 210.966 397.728C211.374 398.472 211.578 399.324 211.578 400.284ZM206.862 396.828C206.034 396.828 205.338 397.08 204.774 397.584C204.222 398.088 203.898 398.748 203.802 399.564H209.922C209.826 398.76 209.496 398.106 208.932 397.602C208.38 397.086 207.69 396.828 206.862 396.828ZM215.634 397.062C215.934 396.51 216.378 396.09 216.966 395.802C217.554 395.514 218.268 395.37 219.108 395.37V397.044C219.012 397.032 218.88 397.026 218.712 397.026C217.776 397.026 217.038 397.308 216.498 397.872C215.97 398.424 215.706 399.216 215.706 400.248V405H213.978V395.46H215.634V397.062ZM224.044 405.108C223.264 405.108 222.514 405.006 221.794 404.802C221.074 404.586 220.51 404.316 220.102 403.992L220.822 402.624C221.242 402.924 221.752 403.164 222.352 403.344C222.952 403.524 223.558 403.614 224.17 403.614C225.682 403.614 226.438 403.182 226.438 402.318C226.438 402.03 226.336 401.802 226.132 401.634C225.928 401.466 225.67 401.346 225.358 401.274C225.058 401.19 224.626 401.1 224.062 401.004C223.294 400.884 222.664 400.746 222.172 400.59C221.692 400.434 221.278 400.17 220.93 399.798C220.582 399.426 220.408 398.904 220.408 398.232C220.408 397.368 220.768 396.678 221.488 396.162C222.208 395.634 223.174 395.37 224.386 395.37C225.022 395.37 225.658 395.448 226.294 395.604C226.93 395.76 227.452 395.97 227.86 396.234L227.122 397.602C226.342 397.098 225.424 396.846 224.368 396.846C223.636 396.846 223.078 396.966 222.694 397.206C222.31 397.446 222.118 397.764 222.118 398.16C222.118 398.472 222.226 398.718 222.442 398.898C222.658 399.078 222.922 399.21 223.234 399.294C223.558 399.378 224.008 399.474 224.584 399.582C225.352 399.714 225.97 399.858 226.438 400.014C226.918 400.158 227.326 400.41 227.662 400.77C227.998 401.13 228.166 401.634 228.166 402.282C228.166 403.146 227.794 403.836 227.05 404.352C226.318 404.856 225.316 405.108 224.044 405.108Z" fill="white"/>
</svg>
