<svg width="70" height="70" viewBox="0 0 70 70" fill="none" xmlns="http://www.w3.org/2000/svg">
<path fill-rule="evenodd" clip-rule="evenodd" d="M19.6191 17.4999C19.039 17.5294 18.4943 17.7881 18.1049 18.2191C17.7155 18.6502 17.5133 19.2183 17.5427 19.7985C17.5722 20.3786 17.8309 20.9233 18.262 21.3127C18.693 21.7021 19.2611 21.9044 19.8413 21.8749H50.1587C50.4486 21.879 50.7364 21.8254 51.0054 21.7173C51.2743 21.6093 51.5192 21.4488 51.7256 21.2452C51.932 21.0417 52.096 20.7992 52.2079 20.5317C52.3197 20.2643 52.3774 19.9773 52.3774 19.6874C52.3774 19.3975 52.3197 19.1105 52.2079 18.843C52.096 18.5756 51.932 18.3331 51.7256 18.1295C51.5192 17.926 51.2743 17.7655 51.0054 17.6574C50.7364 17.5493 50.4486 17.4958 50.1587 17.4999H19.8413C19.7673 17.4961 19.6931 17.4961 19.6191 17.4999ZM19.6191 30.6249C19.039 30.6544 18.4943 30.9131 18.1049 31.3441C17.7155 31.7752 17.5133 32.3433 17.5427 32.9235C17.5722 33.5036 17.8309 34.0483 18.262 34.4377C18.693 34.8271 19.2611 35.0294 19.8413 34.9999H50.1587C50.4486 35.004 50.7364 34.9504 51.0054 34.8423C51.2743 34.7343 51.5192 34.5738 51.7256 34.3702C51.932 34.1667 52.096 33.9242 52.2079 33.6567C52.3197 33.3893 52.3774 33.1023 52.3774 32.8124C52.3774 32.5225 52.3197 32.2355 52.2079 31.968C52.096 31.7006 51.932 31.4581 51.7256 31.2545C51.5192 31.051 51.2743 30.8905 51.0054 30.7824C50.7364 30.6743 50.4486 30.6208 50.1587 30.6249H19.8413C19.7673 30.6211 19.6931 30.6211 19.6191 30.6249V30.6249ZM19.6191 43.7499C19.039 43.7794 18.4943 44.0381 18.1049 44.4691C17.7155 44.9002 17.5133 45.4683 17.5427 46.0485C17.5722 46.6286 17.8309 47.1733 18.262 47.5627C18.693 47.9521 19.2611 48.1544 19.8413 48.1249H50.1587C50.4486 48.129 50.7364 48.0754 51.0054 47.9673C51.2743 47.8593 51.5192 47.6988 51.7256 47.4952C51.932 47.2917 52.096 47.0492 52.2079 46.7817C52.3197 46.5143 52.3774 46.2273 52.3774 45.9374C52.3774 45.6475 52.3197 45.3605 52.2079 45.0931C52.096 44.8256 51.932 44.5831 51.7256 44.3795C51.5192 44.176 51.2743 44.0155 51.0054 43.9074C50.7364 43.7994 50.4486 43.7458 50.1587 43.7499H19.8413C19.7673 43.7461 19.6931 43.7461 19.6191 43.7499V43.7499Z" fill="white"/>
</svg>
