<svg width="44" height="44" viewBox="0 0 44 44" fill="none" xmlns="http://www.w3.org/2000/svg">
<path d="M0.265484 25.4739C1.8422 35.8228 10.0715 43.328 19.658 43.9709C20.3413 44.0167 20.683 44.0396 20.8768 43.7934C21.0707 43.5472 20.9805 43.1866 20.8001 42.4656L19.272 36.3553C19.1758 35.9707 19.1278 35.7784 19.003 35.6555C18.8782 35.5326 18.679 35.4914 18.2807 35.409C12.3321 34.178 7.8465 28.6858 7.8465 22.0968C7.8465 14.6023 13.6496 8.52676 20.8081 8.52676C23.4153 8.52676 25.8427 9.33266 27.8754 10.7195C28.3897 11.0703 28.6468 11.2457 28.881 11.2003C29.1152 11.155 29.2834 10.9121 29.6197 10.4263L33.0495 5.47264C33.3761 5.00102 33.5393 4.76521 33.4954 4.50476C33.4515 4.24432 33.2298 4.08742 32.7863 3.77363C28.5214 0.756103 23.1947 -0.6379 17.7104 0.277945C6.2474 2.19221 -1.56296 13.4728 0.265484 25.4739Z" fill="white"/>
<path d="M29.8853 43.9856L37.8342 43.9856C39.8793 43.9856 43.9757 42.7527 43.9998 37.8215C44.024 32.8902 41.3669 28.7809 40.0069 27.5523C39.3457 26.8369 37.7193 25.692 35.7443 24.6123C35.7927 24.63 35.8407 24.6491 35.8883 24.6696C35.9479 24.6953 35.3189 24.3773 34.8892 24.1605C34.829 24.1298 34.7686 24.0992 34.7081 24.0688C34.3239 23.8757 34.5413 23.985 34.8892 24.1605C35.18 24.3089 35.4657 24.4599 35.7443 24.6123C33.3289 23.7279 30.0151 26.3172 30.3411 28.8777C30.3164 28.782 30.2913 28.6793 30.2653 28.5684C30.1772 28.163 30.0648 27.6342 30.1555 28.0606C30.2148 28.3397 30.2445 28.4793 30.2532 28.5166C30.2572 28.5341 30.2613 28.5513 30.2653 28.5684C30.3148 28.7965 30.3567 28.9856 30.3503 28.9438C30.347 28.9218 30.3439 28.8997 30.3411 28.8777C30.5881 29.834 30.8063 30.0954 31.7326 30.7976C31.763 30.8206 32.0576 31.0352 32.6468 31.4644L32.6486 31.4657C34.2825 32.6558 35.9948 34.5367 36.1114 36.5505C36.1053 36.6237 35.9354 37.4618 35.2721 37.9772C35.2036 38.0305 35.3748 37.8974 34.7442 38.1136C34.1135 38.3299 33.9632 38.3299 33.6626 38.3299L30.248 38.3299C29.9558 38.3087 29.3111 38.0121 29.0693 36.9954C28.8343 36.0074 25.974 22.1596 24.4535 14.7785C24.4221 14.626 24.4064 14.5498 24.1052 14.0107C23.804 13.4716 24.0717 13.7235 23.9646 13.6227C23.7957 13.4638 23.5725 13.3362 23.2965 13.3241L23.2965 13.3241C21.323 13.2376 20.3363 13.1944 19.5481 13.5031C18.2778 14.0007 17.2933 15.2101 17.0639 16.555C16.9215 17.3894 17.1844 18.427 17.7101 20.5023L22.1302 37.9502C22.8647 40.8493 23.2319 42.2989 24.3155 43.1422C25.3991 43.9856 26.8945 43.9856 29.8853 43.9856Z" fill="white"/>
</svg>
