<svg width="669" height="541" viewBox="0 0 669 541" fill="none" xmlns="http://www.w3.org/2000/svg">
<path opacity="0.34" d="M600.106 540.908H58.8901C52.003 540.908 46.4199 535.325 46.4199 528.438C46.4199 521.551 52.003 515.968 58.8901 515.968H600.106C606.993 515.968 612.576 521.551 612.576 528.438C612.575 535.326 606.993 540.908 600.106 540.908Z" fill="black"/>
<path d="M639.844 376.23H529.864C518.672 376.23 509.6 367.157 509.6 355.964C509.6 344.772 518.673 335.699 529.865 335.699H591.287C604.579 335.699 615.354 324.924 615.354 311.632C615.354 298.341 604.579 287.566 591.287 287.566H536.662C521.716 287.566 509.6 275.45 509.6 260.503C509.6 245.557 521.716 233.441 536.662 233.441H597.446C610.771 233.441 621.574 222.638 621.574 209.313C621.574 195.988 610.772 185.186 597.446 185.186H509.6H488.635C475.31 185.186 464.507 174.383 464.507 161.058C464.507 147.733 475.31 136.93 488.635 136.93H512.42C525.745 136.93 536.548 126.128 536.548 112.803C536.548 99.4777 525.746 88.675 512.42 88.675H498.899H496.635H353.035H348.152H198.165H163.781C150.456 88.675 139.654 99.4777 139.654 112.803C139.654 126.128 150.456 136.93 163.781 136.93H174.037C187.362 136.93 198.165 147.733 198.165 161.058C198.165 174.383 187.362 185.186 174.037 185.186H81.969C71.7528 185.186 63.4716 193.468 63.4716 203.683C63.4716 213.899 71.7537 222.18 81.969 222.18H178.862C189.523 222.18 198.165 230.822 198.165 241.483C198.165 252.143 189.523 260.785 178.862 260.785H24.1276C10.8026 260.785 0 271.588 0 284.913C0 298.238 10.8026 309.04 24.1276 309.04H174.038C187.363 309.04 198.166 319.842 198.166 333.168C198.166 346.493 187.363 357.295 174.038 357.295H83.5728C62.2524 357.295 44.969 374.579 44.969 395.899C44.969 417.22 62.2524 434.503 83.5728 434.503H198.164H248.996H277.594H509.599H639.843C655.935 434.503 668.98 421.458 668.98 405.366C668.982 389.274 655.936 376.23 639.844 376.23Z" fill="#052042"/>
<path d="M435.701 528.439H451.433L451.433 291.721H435.701V528.439Z" fill="#2F262D"/>
<path d="M375.796 339.439C373.25 333.714 375.837 326.986 381.562 324.44C383.031 323.788 384.58 323.457 386.167 323.457C390.658 323.457 394.738 326.106 396.56 330.208L452.562 456.177L431.798 465.409L375.796 339.439Z" fill="#FC9F6F"/>
<path d="M282.312 528.439H298.044L298.044 291.721H282.312V528.439Z" fill="#2F262D"/>
<path d="M355.078 307.207C301.016 307.207 257.19 265.993 257.19 215.153C257.19 202.008 260.127 189.51 265.406 178.198C230.954 192.451 206.894 224.827 206.894 262.493C206.894 313.332 250.72 354.546 304.782 354.546C344.866 354.546 379.316 331.887 394.455 299.449C382.405 304.434 369.087 307.207 355.078 307.207Z" fill="#F2F2F2"/>
<path d="M300.923 332.044C330.523 332.044 354.518 310.029 354.518 282.873C354.518 255.716 330.523 233.701 300.923 233.701C271.324 233.701 247.329 255.716 247.329 282.873C247.329 310.029 271.324 332.044 300.923 332.044Z" fill="#3B323A"/>
<path d="M204.432 291.721H84.5919C80.0051 291.721 76.2863 288.002 76.2863 283.415V275.554C76.2863 270.967 80.0051 267.248 84.5919 267.248H204.432C209.019 267.248 212.738 270.967 212.738 275.554V283.415C212.738 288.003 209.019 291.721 204.432 291.721Z" fill="#AFAFAF"/>
<path d="M347.298 245.396C330.49 245.396 316.864 231.771 316.864 214.963V184.529C316.864 172.944 307.473 163.553 295.888 163.553V214.963C295.888 243.356 318.905 266.372 347.298 266.372H389.843V245.396H347.298Z" fill="#EF9067"/>
<path d="M354.272 84.8461C351.125 124.618 316.135 168.623 283.478 163.078C252.223 157.772 230.665 108.364 241.235 73.7752C247.749 52.4592 265.755 39.1001 280.274 28.3272C295.342 17.1478 305.445 9.65156 316.982 11.4301C339.881 14.9594 356.775 53.2213 354.272 84.8461Z" fill="#603936"/>
<path d="M310.122 197.994C309.533 197.317 304.628 191.574 303.749 190.784C301.455 181.425 296.812 171.098 297.777 159.029C291.208 154.241 280.361 148.107 268.061 148.978C264.389 149.237 260.565 150.123 258.593 150.58C247.921 153.051 241.165 156.926 239.001 158.227C236.006 160.027 234.509 160.927 232.81 162.67C228.075 167.527 226.931 173.492 226.328 177.018C221.125 207.44 225.202 236.663 225.694 239.121C226.621 243.751 227.934 247.893 227.934 247.893C230.159 254.767 232.716 259.099 233.434 261.037C236.94 270.51 244.905 290.337 253.316 305.479C259.394 306.449 273.303 312.569 282.48 309.429C296.499 304.631 325.308 293.895 335.654 291.722C322.775 277.31 310.981 261.183 307.919 241.649C307.123 236.572 306.458 231.594 305.909 226.727C307.145 226.122 314.57 222.351 316.069 214.819C317.689 206.685 311.357 199.413 310.122 197.994Z" fill="#02474A"/>
<path d="M278.575 179.669C286.188 177.546 290.349 168.615 287.869 159.721C285.389 150.827 277.206 145.339 269.593 147.462C261.98 149.585 257.819 158.516 260.299 167.409C262.779 176.303 270.962 181.792 278.575 179.669Z" fill="#EF9067"/>
<path d="M271.824 143.696C276.605 155.089 284.584 158.984 289.676 161.957C299.585 167.745 318.037 167.185 318.037 167.185C318.674 163.155 319.305 159.673 322.371 153.019C326.907 143.173 331.148 140.812 336.937 131.897C345.672 118.446 350.058 102.194 347.28 100.579C345.244 99.3946 339.764 105.669 336.209 109.319C326.005 119.795 303.12 135.365 271.824 143.696Z" fill="#603936"/>
<path d="M271.46 168.629H267.819C259.814 168.629 253.325 162.14 253.325 154.136V99.0012H282.313V157.777C282.313 163.771 277.454 168.629 271.46 168.629Z" fill="#EF9067"/>
<path d="M108.116 528.439H123.848L123.848 291.721H108.116L108.116 528.439Z" fill="#2F262D"/>
<path d="M204.872 528.439H220.604L220.604 291.721H204.872L204.872 528.439Z" fill="#494149"/>
<path d="M530.417 528.439H546.149V291.721H530.417V528.439Z" fill="#494149"/>
<path opacity="0.71" d="M253.325 104.834C255.246 121.558 266.816 135.38 282.313 140.589V95.626H253.325V104.834Z" fill="#D36B46"/>
<path d="M295.947 138.452C274.66 138.452 257.404 121.196 257.404 99.9086V52.8873C257.404 50.9086 259.008 49.304 260.987 49.304H315.743C326.096 49.304 334.49 57.697 334.49 68.0513V99.9086C334.49 121.196 317.234 138.452 295.947 138.452Z" fill="#FC9F6F"/>
<path d="M334.49 94.35C334.034 95.3577 333.025 96.063 331.848 96.063H314.934C313.332 96.063 312.029 94.7599 312.029 93.1587V83.6723C312.029 82.0703 313.333 80.768 314.934 80.768H331.848C333.025 80.768 334.034 81.4733 334.49 82.4811V78.8199C333.705 78.3907 332.804 78.146 331.848 78.146H314.934C311.886 78.146 309.407 80.6247 309.407 83.6723V93.1587C309.407 96.2063 311.886 98.685 314.934 98.685H331.848C332.804 98.685 333.705 98.4403 334.49 98.0111V94.35Z" fill="#DD9883"/>
<path d="M300.384 97.3739H283.47C281.141 97.3739 279.254 95.4869 279.254 93.1586V83.6731C279.254 81.3447 281.141 79.4578 283.47 79.4578H300.384C302.713 79.4578 304.599 81.3447 304.599 83.6731V93.1586C304.599 95.486 302.713 97.3739 300.384 97.3739Z" stroke="#DD9883" stroke-width="3" stroke-miterlimit="10" stroke-linecap="round" stroke-linejoin="round"/>
<path opacity="0.6" d="M281.351 107.192V60.1704C281.351 58.1917 282.956 56.587 284.934 56.587L316.567 45.4811C313.138 41.0569 321.774 49.304 315.743 49.304H260.987C259.008 49.304 257.404 50.9087 257.404 52.8874V99.9086C257.404 121.196 274.66 138.452 295.947 138.452C296.404 138.452 296.858 138.434 297.31 138.418C287.645 131.414 281.351 120.041 281.351 107.192Z" fill="#EF9067"/>
<path d="M331.848 95.6259H314.934C312.605 95.6259 310.718 93.7389 310.718 91.4105V81.925C310.718 79.5967 312.605 77.7097 314.934 77.7097H331.848C334.176 77.7097 336.063 79.5967 336.063 81.925V91.4105C336.063 93.738 334.176 95.6259 331.848 95.6259Z" stroke="#F6CDF7" stroke-width="3" stroke-miterlimit="10" stroke-linecap="round" stroke-linejoin="round"/>
<path d="M305.984 119.006H305.959C301.119 119.006 297.171 115.083 297.171 110.244V106.114H314.651V110.244C314.651 115.082 310.823 119.006 305.984 119.006Z" fill="#FCFAFA"/>
<path d="M290.178 85.575H298.044" stroke="#161515" stroke-width="3" stroke-miterlimit="10" stroke-linecap="round" stroke-linejoin="round"/>
<path d="M319.895 85.575H327.76" stroke="#161515" stroke-width="3" stroke-miterlimit="10" stroke-linecap="round" stroke-linejoin="round"/>
<path d="M300.384 95.6259H283.47C281.141 95.6259 279.254 93.7389 279.254 91.4105V81.925C279.254 79.5967 281.141 77.7097 283.47 77.7097H300.384C302.713 77.7097 304.599 79.5967 304.599 81.925V91.4105C304.599 93.738 302.713 95.6259 300.384 95.6259Z" stroke="#F6CDF7" stroke-width="3" stroke-miterlimit="10" stroke-linecap="round" stroke-linejoin="round"/>
<path d="M312.15 13.907C301.617 0.314583 283.544 0.526084 280.212 0.178232C277.261 -0.395112 260.87 0.335556 248.894 3.53352C221.264 10.9118 202.026 35.9152 202.026 64.5134V101.23C202.026 125.839 220.231 155.731 243.565 163.554C256.484 167.886 270.819 171.246 274.212 170.741C256.946 138.631 259.308 119.733 264.128 108.628C275.883 81.5494 310.219 82.4636 318.705 52.363C318.972 51.4138 324.29 29.5752 312.15 13.907Z" fill="#754743"/>
<path d="M419.978 266.093C420.818 263.824 421.279 261.37 421.279 258.81C421.279 247.225 411.887 237.833 400.302 237.833C388.718 237.833 379.326 247.225 379.326 258.81C379.326 261.37 379.787 263.824 380.627 266.093H419.978Z" fill="#EF9067"/>
<path d="M352.711 267.249C350.975 259.247 341.244 253.119 329.498 253.119C317.752 253.119 308.02 259.247 306.285 267.249H352.711Z" fill="#F4EFF0"/>
<path d="M237.52 206.078C244.559 206.078 250.266 197.113 250.266 186.054C250.266 174.996 244.559 166.031 237.52 166.031C230.481 166.031 224.774 174.996 224.774 186.054C224.774 197.113 230.481 206.078 237.52 206.078Z" fill="#EF9067"/>
<path d="M276.184 246.111C259.376 246.111 245.75 232.486 245.75 215.678V178.547C245.75 172.755 241.054 168.059 235.262 168.059C229.47 168.059 224.774 172.755 224.774 178.547V215.678C224.774 244.07 247.791 267.087 276.184 267.087H318.729V246.111H297.412H276.184Z" fill="#FC9F6F"/>
<path d="M452.955 267.249H354.999C353.735 267.249 352.711 266.225 352.711 264.962C352.711 263.698 353.736 262.674 354.999 262.674H452.955C454.219 262.674 455.242 263.699 455.242 264.962C455.242 266.225 454.218 267.249 452.955 267.249Z" fill="white"/>
<path d="M452.955 264.962H354.999C354.154 264.962 353.425 264.498 353.029 263.818C352.832 264.155 352.711 264.543 352.711 264.962C352.711 266.225 353.736 267.249 354.999 267.249H452.955C454.219 267.249 455.242 266.225 455.242 264.962C455.242 264.543 455.121 264.156 454.925 263.818C454.529 264.498 453.799 264.962 452.955 264.962Z" fill="#F4EFF0"/>
<path d="M374.004 267.249H354.999C353.735 267.249 352.711 266.225 352.711 264.962C352.711 263.698 353.736 262.674 354.999 262.674H374.004C375.268 262.674 376.291 263.699 376.291 264.962C376.291 266.225 375.267 267.249 374.004 267.249ZM445.974 262.674H438.873V260.976C438.873 260.071 439.606 259.337 440.512 259.337H444.336C445.241 259.337 445.974 260.071 445.974 260.976V262.674ZM437.234 262.674H430.133V260.976C430.133 260.071 430.866 259.337 431.772 259.337H435.596C436.501 259.337 437.234 260.071 437.234 260.976V262.674ZM428.494 262.674H421.393V260.976C421.393 260.071 422.126 259.337 423.032 259.337H426.856C427.761 259.337 428.494 260.071 428.494 260.976V262.674ZM419.754 262.674H412.653V260.976C412.653 260.071 413.386 259.337 414.292 259.337H418.116C419.021 259.337 419.754 260.071 419.754 260.976V262.674ZM411.014 262.674H403.913V260.976C403.913 260.071 404.646 259.337 405.552 259.337H409.376C410.281 259.337 411.014 260.071 411.014 260.976V262.674ZM402.274 262.674H395.173V260.976C395.173 260.071 395.906 259.337 396.812 259.337H400.636C401.541 259.337 402.274 260.071 402.274 260.976V262.674ZM393.534 262.674H386.433V260.976C386.433 260.071 387.166 259.337 388.072 259.337H391.896C392.801 259.337 393.534 260.071 393.534 260.976V262.674ZM384.794 262.674H377.693V260.976C377.693 260.071 378.426 259.337 379.332 259.337H383.156C384.061 259.337 384.794 260.071 384.794 260.976V262.674ZM376.054 262.674H368.953V260.976C368.953 260.071 369.686 259.337 370.592 259.337H374.416C375.321 259.337 376.054 260.071 376.054 260.976V262.674ZM367.314 262.674H360.213V260.976C360.213 260.071 360.946 259.337 361.852 259.337H365.676C366.581 259.337 367.314 260.071 367.314 260.976V262.674Z" fill="#F4EFF0"/>
<path d="M354.999 267.249H374.004C375.268 267.249 376.291 266.225 376.291 264.962H352.711C352.711 266.225 353.735 267.249 354.999 267.249Z" fill="#E2E2E2"/>
<path d="M363.517 338.26H294.354L293.844 301.552H379.462C385.195 301.552 389.843 306.2 389.843 311.933C389.843 326.473 378.057 338.26 363.517 338.26Z" fill="#352934"/>
<path d="M307.943 471.366L350.335 328.05C351.753 323.255 356.23 319.906 361.222 319.906C362.309 319.906 363.395 320.065 364.453 320.378C370.461 322.155 373.903 328.488 372.126 334.495L329.732 477.811L307.943 471.366Z" fill="#EF9067"/>
<path d="M343.143 459.595L307.943 449.183L352.318 299.162C355.194 289.442 365.405 283.893 375.124 286.768C384.845 289.643 390.394 299.854 387.518 309.574L343.143 459.595Z" fill="#352934"/>
<path d="M518.152 224.772H371.32C368.423 224.772 366.076 222.424 366.076 219.528L384.244 114.648C384.244 111.751 386.592 109.404 389.488 109.404H536.321C539.217 109.404 541.565 111.751 541.565 114.648L523.396 219.528C523.396 222.424 521.048 224.772 518.152 224.772Z" fill="#CECECE"/>
<path d="M526.892 224.772H380.06C377.163 224.772 374.816 222.424 374.816 219.528L392.984 114.648C392.984 111.751 395.332 109.404 398.228 109.404H545.061C547.957 109.404 550.305 111.751 550.305 114.648L532.136 219.528C532.136 222.424 529.788 224.772 526.892 224.772Z" fill="#F4EFF0"/>
<path d="M481.986 261.579L469.899 200.482H448.473C445.841 200.482 443.864 202.888 444.375 205.47L455.049 259.426C455.444 261.423 453.915 263.283 451.88 263.283H438.8C436.477 263.283 434.595 265.165 434.595 267.488H456.644H456.653H477.131C480.249 267.489 482.591 264.639 481.986 261.579Z" fill="#CECECE"/>
<path d="M483.16 267.489H460.904L447.933 201.921C447.785 201.176 448.355 200.482 449.114 200.482H474.16L486.59 263.314C487.017 265.476 485.364 267.489 483.16 267.489Z" fill="#F4EFF0"/>
<path d="M456.643 267.489H460.904L459.737 261.59H455.476L456.643 267.489Z" fill="#F4EFF0"/>
<path d="M456.643 267.489H456.648C458.852 267.489 460.505 265.476 460.078 263.315L459.737 261.59H455.023L456.643 267.489ZM475.872 169.17C471.129 169.17 467.284 165.326 467.284 160.583C467.284 159.042 467.695 157.6 468.405 156.35C467.171 155.975 465.865 155.77 464.508 155.77C457.107 155.77 451.107 161.77 451.107 169.171C451.107 176.572 457.107 182.572 464.508 182.572C471.909 182.572 477.909 176.572 477.909 169.171C477.909 169.087 477.898 169.005 477.897 168.921C477.246 169.078 476.57 169.17 475.872 169.17Z" fill="#CECECE"/>
<path d="M374.24 318.212L302.262 337.221C282.652 342.366 262.86 328.507 253.317 305.479L364.925 282.706C374.729 280.133 384.763 285.996 387.335 295.802C389.908 305.606 384.044 315.64 374.24 318.212Z" fill="#3B323A"/>
<path d="M446.683 427.479L413.141 442.392L354.299 310.033C350.181 300.77 354.351 289.923 363.614 285.806C372.876 281.688 383.724 285.858 387.841 295.121L446.683 427.479Z" fill="#3B323A"/>
<path d="M197.153 291.721H571.435C576.022 291.721 579.741 288.002 579.741 283.415V275.554C579.741 270.967 576.023 267.248 571.435 267.248H197.153C192.567 267.248 188.848 270.967 188.848 275.554V283.415C188.849 288.003 192.567 291.721 197.153 291.721Z" fill="#F2F2F2"/>
<path d="M501.409 470.022L427.054 483.572C424.208 484.09 421.455 482.27 420.856 479.514L420.337 477.123C418.859 470.32 423.241 463.396 430.426 461.579L484.61 447.883C495.139 445.222 505.695 450.104 507.613 458.933L508.288 462.037C509.064 465.613 505.94 469.196 501.409 470.022Z" fill="#535452"/>
<path d="M504.297 463.277L421.194 478.42C421.007 478.454 420.821 478.477 420.634 478.493L420.856 479.513C421.454 482.269 424.207 484.09 427.053 483.571L501.409 470.022C505.939 469.196 509.063 465.613 508.286 462.036L508.228 461.767C507.093 462.477 505.765 463.009 504.297 463.277Z" fill="#FFFDFD"/>
<path d="M347.862 516.782L285.704 473.786C283.325 472.14 282.666 468.905 284.191 466.533L285.515 464.475C289.28 458.62 297.274 456.821 303.64 460.618L351.639 489.248C360.966 494.811 364.977 505.727 360.091 513.326L358.372 515.998C356.392 519.076 351.649 519.401 347.862 516.782Z" fill="#424441"/>
<path d="M354.674 514.053L285.203 465.998C285.046 465.89 284.898 465.775 284.755 465.655L284.191 466.532C282.666 468.904 283.325 472.139 285.704 473.785L347.862 516.781C351.649 519.401 356.392 519.075 358.372 515.997L358.52 515.766C357.215 515.465 355.9 514.902 354.674 514.053Z" fill="#CECECE"/>
<path d="M175.799 267.249H161.66C154.453 267.249 148.611 261.407 148.611 254.2V215.678H188.848V254.2C188.849 261.407 183.006 267.249 175.799 267.249Z" fill="#FF6161"/>
<path d="M153.104 220.937C143.772 220.937 136.207 228.502 136.207 237.834C136.207 247.165 143.772 254.731 153.104 254.731C162.436 254.731 170.001 247.165 170.001 237.834C170.001 228.502 162.436 220.937 153.104 220.937ZM153.105 251.017C145.836 251.017 139.922 245.103 139.922 237.834C139.922 230.565 145.836 224.652 153.105 224.652C160.374 224.652 166.287 230.565 166.287 237.834C166.287 245.103 160.374 251.017 153.105 251.017Z" fill="#F4A36C"/>
<path d="M175.799 267.249H161.66C154.453 267.249 148.611 261.407 148.611 254.2V215.678H188.848V254.2C188.849 261.407 183.006 267.249 175.799 267.249Z" fill="#F7BC8B"/>
<path d="M167.647 255.013C163.658 255.013 160.424 251.779 160.424 247.79V215.678H148.611V254.2C148.611 261.407 154.454 267.249 161.66 267.249H175.799C182.732 267.249 188.385 261.839 188.807 255.013H167.647Z" fill="#EFA573"/>
<path d="M334.354 267.249C335.194 264.98 335.654 262.527 335.654 259.966C335.654 248.381 326.263 238.99 314.678 238.99C303.094 238.99 293.702 248.381 293.702 259.966C293.702 262.527 294.163 264.98 295.003 267.249H334.354Z" fill="#FC9F6F"/>
<path opacity="0.77" d="M164.344 208.656C167.468 208.656 170.001 206.124 170.001 203C170.001 199.876 167.468 197.343 164.344 197.343C161.22 197.343 158.688 199.876 158.688 203C158.688 206.124 161.22 208.656 164.344 208.656Z" fill="#F2F2F2"/>
<path opacity="0.77" d="M174.776 191.686C179.465 191.686 183.266 187.885 183.266 183.196C183.266 178.508 179.465 174.707 174.776 174.707C170.088 174.707 166.287 178.508 166.287 183.196C166.287 187.885 170.088 191.686 174.776 191.686Z" fill="#F2F2F2"/>
<path d="M91.8539 136.931C105.179 136.931 115.982 126.129 115.982 112.803C115.982 99.4781 105.179 88.6758 91.8539 88.6758C78.5286 88.6758 67.7263 99.4781 67.7263 112.803C67.7263 126.129 78.5286 136.931 91.8539 136.931Z" fill="#052042"/>
</svg>
